<?xml version="1.0" encoding="UTF-8"?>
<svg id="Layer_1" data-name="Layer 1" xmlns="http://www.w3.org/2000/svg" viewBox="0 0 32 19.02">
  <path d="m32,13.02c0,.11,0,.21-.01.32v4.67c0,.55-.45,1-1,1h-2c-.55,0-1-.45-1-1v-5c0-.55-.44-1-1-1-.51,0-.93.38-.99.88,0,.04-.01.08-.01.12v5c0,.55-.45,1-1,1h-2c-.55,0-1-.45-1-1v-5s0-.05,0-.07v-.03c-.05-.5-.47-.89-.98-.9h-.01c-.55,0-1,.44-1,1v5c0,.55-.45,1-1,1h-2c-.55,0-1-.45-1-1v-9.01c0-.55.44-1,1-1h4.01c.88,0,1.71.23,2.43.63.03.02.05.03.08.05.14.07.3.12.47.12s.33-.04.47-.12c.03-.02.05-.03.08-.05.72-.4,1.55-.63,2.44-.63,2.76,0,5.01,2.24,5.01,5.01Z" style="fill: #E9ECF1;"/>
  <path d="m10,5v3h3c.55,0,1,.45,1,1v2c0,.55-.45,1-1,1h-3v6c0,.55-.45,1-1,1h-2c-.55,0-1-.45-1-1V4c0-2.21,1.79-4,4-4h3c.55,0,1,.45,1,1v2c0,.55-.45,1-1,1h-2c-.55,0-1,.45-1,1Z" style="fill: #E9ECF1;"/>
  <rect y="15.02" width="4" height="4" rx="1" ry="1" style="fill: #E9ECF1;"/>
</svg>